<svg xmlns="http://www.w3.org/2000/svg" version="1.1" xmlns:xlink="http://www.w3.org/1999/xlink" xmlns:svgjs="http://svgjs.dev/svgjs" width="1440" height="560" preserveAspectRatio="none" viewBox="0 0 1440 560">
    <g mask="url(&quot;#SvgjsMask1006&quot;)" fill="none">
        <path d="M-57.73 404.07L-57.73 404.07" stroke="rgba(95, 19, 101, 1)" stroke-width="1.5"></path>
        <path d="M-57.73 404.07L-82.06 530.95" stroke="rgba(95, 19, 101, 1)" stroke-width="1.5"></path>
        <path d="M-57.73 404.07L73.56 370.17" stroke="rgba(95, 19, 101, 1)" stroke-width="1.5"></path>
        <path d="M-57.73 404.07L60.41 516.61" stroke="rgba(95, 19, 101, 1)" stroke-width="1.5"></path>
        <path d="M-57.73 404.07L197.19 554.15" stroke="rgba(95, 19, 101, 1)" stroke-width="1.5"></path>
        <path d="M-57.73 404.07L62.27 677.45" stroke="rgba(95, 19, 101, 1)" stroke-width="1.5"></path>
        <path d="M-57.73 404.07L248.64 380.44" stroke="rgba(95, 19, 101, 1)" stroke-width="1.5"></path>
        <path d="M-82.06 530.95L-82.06 530.95" stroke="rgba(95, 19, 101, 1)" stroke-width="1.5"></path>
        <path d="M-82.06 530.95L60.41 516.61" stroke="rgba(95, 19, 101, 1)" stroke-width="1.5"></path>
        <path d="M-82.06 530.95L-78.58 711.78" stroke="rgba(95, 19, 101, 1)" stroke-width="1.5"></path>
        <path d="M-82.06 530.95L62.27 677.45" stroke="rgba(95, 19, 101, 1)" stroke-width="1.5"></path>
        <path d="M-82.06 530.95L73.56 370.17" stroke="rgba(95, 19, 101, 1)" stroke-width="1.5"></path>
        <path d="M-82.06 530.95L197.19 554.15" stroke="rgba(95, 19, 101, 1)" stroke-width="1.5"></path>
        <path d="M-78.58 711.78L-78.58 711.78" stroke="rgba(95, 19, 101, 1)" stroke-width="1.5"></path>
        <path d="M-78.58 711.78L62.27 677.45" stroke="rgba(95, 19, 101, 1)" stroke-width="1.5"></path>
        <path d="M-78.58 711.78L60.41 516.61" stroke="rgba(95, 19, 101, 1)" stroke-width="1.5"></path>
        <path d="M-78.58 711.78L217.42 650.01" stroke="rgba(95, 19, 101, 1)" stroke-width="1.5"></path>
        <path d="M-78.58 711.78L-57.73 404.07" stroke="rgba(95, 19, 101, 1)" stroke-width="1.5"></path>
        <path d="M73.56 370.17L73.56 370.17" stroke="rgba(95, 19, 101, 1)" stroke-width="1.5"></path>
        <path d="M73.56 370.17L60.41 516.61" stroke="rgba(95, 19, 101, 1)" stroke-width="1.5"></path>
        <path d="M73.56 370.17L248.64 380.44" stroke="rgba(95, 19, 101, 1)" stroke-width="1.5"></path>
        <path d="M73.56 370.17L197.19 554.15" stroke="rgba(95, 19, 101, 1)" stroke-width="1.5"></path>
        <path d="M73.56 370.17L350.98 499.09" stroke="rgba(95, 19, 101, 1)" stroke-width="1.5"></path>
        <path d="M60.41 516.61L60.41 516.61" stroke="rgba(95, 19, 101, 1)" stroke-width="1.5"></path>
        <path d="M60.41 516.61L197.19 554.15" stroke="rgba(95, 19, 101, 1)" stroke-width="1.5"></path>
        <path d="M62.27 677.45L62.27 677.45" stroke="rgba(95, 19, 101, 1)" stroke-width="1.5"></path>
        <path d="M62.27 677.45L217.42 650.01" stroke="rgba(95, 19, 101, 1)" stroke-width="1.5"></path>
        <path d="M62.27 677.45L60.41 516.61" stroke="rgba(95, 19, 101, 1)" stroke-width="1.5"></path>
        <path d="M248.64 380.44L248.64 380.44" stroke="rgba(95, 19, 101, 1)" stroke-width="1.5"></path>
        <path d="M248.64 380.44L350.98 499.09" stroke="rgba(95, 19, 101, 1)" stroke-width="1.5"></path>
        <path d="M197.19 554.15L197.19 554.15" stroke="rgba(95, 19, 101, 1)" stroke-width="1.5"></path>
        <path d="M197.19 554.15L217.42 650.01" stroke="rgba(95, 19, 101, 1)" stroke-width="1.5"></path>
        <path d="M197.19 554.15L350.98 499.09" stroke="rgba(95, 19, 101, 1)" stroke-width="1.5"></path>
        <path d="M197.19 554.15L342.17 654.8" stroke="rgba(95, 19, 101, 1)" stroke-width="1.5"></path>
        <path d="M197.19 554.15L248.64 380.44" stroke="rgba(95, 19, 101, 1)" stroke-width="1.5"></path>
        <path d="M217.42 650.01L217.42 650.01" stroke="rgba(95, 19, 101, 1)" stroke-width="1.5"></path>
        <path d="M217.42 650.01L342.17 654.8" stroke="rgba(95, 19, 101, 1)" stroke-width="1.5"></path>
        <path d="M217.42 650.01L350.98 499.09" stroke="rgba(95, 19, 101, 1)" stroke-width="1.5"></path>
        <path d="M350.98 499.09L350.98 499.09" stroke="rgba(95, 19, 101, 1)" stroke-width="1.5"></path>
        <path d="M350.98 499.09L342.17 654.8" stroke="rgba(95, 19, 101, 1)" stroke-width="1.5"></path>
        <path d="M350.98 499.09L546.62 490.7" stroke="rgba(95, 19, 101, 1)" stroke-width="1.5"></path>
        <path d="M350.98 499.09L526.3 407.6" stroke="rgba(95, 19, 101, 1)" stroke-width="1.5"></path>
        <path d="M342.17 654.8L342.17 654.8" stroke="rgba(95, 19, 101, 1)" stroke-width="1.5"></path>
        <path d="M342.17 654.8L538.34 646.68" stroke="rgba(95, 19, 101, 1)" stroke-width="1.5"></path>
        <path d="M342.17 654.8L546.62 490.7" stroke="rgba(95, 19, 101, 1)" stroke-width="1.5"></path>
        <path d="M342.17 654.8L62.27 677.45" stroke="rgba(95, 19, 101, 1)" stroke-width="1.5"></path>
        <path d="M526.3 407.6L526.3 407.6" stroke="rgba(95, 19, 101, 1)" stroke-width="1.5"></path>
        <path d="M526.3 407.6L546.62 490.7" stroke="rgba(95, 19, 101, 1)" stroke-width="1.5"></path>
        <path d="M526.3 407.6L703.88 411.27" stroke="rgba(95, 19, 101, 1)" stroke-width="1.5"></path>
        <path d="M546.62 490.7L546.62 490.7" stroke="rgba(95, 19, 101, 1)" stroke-width="1.5"></path>
        <path d="M546.62 490.7L687.99 540.01" stroke="rgba(95, 19, 101, 1)" stroke-width="1.5"></path>
        <path d="M546.62 490.7L538.34 646.68" stroke="rgba(95, 19, 101, 1)" stroke-width="1.5"></path>
        <path d="M538.34 646.68L538.34 646.68" stroke="rgba(95, 19, 101, 1)" stroke-width="1.5"></path>
        <path d="M538.34 646.68L687.99 540.01" stroke="rgba(95, 19, 101, 1)" stroke-width="1.5"></path>
        <path d="M538.34 646.68L350.98 499.09" stroke="rgba(95, 19, 101, 1)" stroke-width="1.5"></path>
        <path d="M538.34 646.68L526.3 407.6" stroke="rgba(95, 19, 101, 1)" stroke-width="1.5"></path>
        <path d="M669.04 223.23L669.04 223.23" stroke="rgba(95, 19, 101, 1)" stroke-width="1.5"></path>
        <path d="M669.04 223.23L830.57 257.07" stroke="rgba(95, 19, 101, 1)" stroke-width="1.5"></path>
        <path d="M669.04 223.23L703.88 411.27" stroke="rgba(95, 19, 101, 1)" stroke-width="1.5"></path>
        <path d="M669.04 223.23L526.3 407.6" stroke="rgba(95, 19, 101, 1)" stroke-width="1.5"></path>
        <path d="M669.04 223.23L823.05 406.14" stroke="rgba(95, 19, 101, 1)" stroke-width="1.5"></path>
        <path d="M669.04 223.23L546.62 490.7" stroke="rgba(95, 19, 101, 1)" stroke-width="1.5"></path>
        <path d="M703.88 411.27L703.88 411.27" stroke="rgba(95, 19, 101, 1)" stroke-width="1.5"></path>
        <path d="M703.88 411.27L823.05 406.14" stroke="rgba(95, 19, 101, 1)" stroke-width="1.5"></path>
        <path d="M703.88 411.27L687.99 540.01" stroke="rgba(95, 19, 101, 1)" stroke-width="1.5"></path>
        <path d="M703.88 411.27L839.35 499.77" stroke="rgba(95, 19, 101, 1)" stroke-width="1.5"></path>
        <path d="M687.99 540.01L687.99 540.01" stroke="rgba(95, 19, 101, 1)" stroke-width="1.5"></path>
        <path d="M830.57 257.07L830.57 257.07" stroke="rgba(95, 19, 101, 1)" stroke-width="1.5"></path>
        <path d="M830.57 257.07L823.05 406.14" stroke="rgba(95, 19, 101, 1)" stroke-width="1.5"></path>
        <path d="M830.57 257.07L982.53 197.36" stroke="rgba(95, 19, 101, 1)" stroke-width="1.5"></path>
        <path d="M823.05 406.14L823.05 406.14" stroke="rgba(95, 19, 101, 1)" stroke-width="1.5"></path>
        <path d="M823.05 406.14L839.35 499.77" stroke="rgba(95, 19, 101, 1)" stroke-width="1.5"></path>
        <path d="M823.05 406.14L966.63 377.5" stroke="rgba(95, 19, 101, 1)" stroke-width="1.5"></path>
        <path d="M823.05 406.14L976.43 513.08" stroke="rgba(95, 19, 101, 1)" stroke-width="1.5"></path>
        <path d="M839.35 499.77L839.35 499.77" stroke="rgba(95, 19, 101, 1)" stroke-width="1.5"></path>
        <path d="M839.35 499.77L976.43 513.08" stroke="rgba(95, 19, 101, 1)" stroke-width="1.5"></path>
        <path d="M839.35 499.77L687.99 540.01" stroke="rgba(95, 19, 101, 1)" stroke-width="1.5"></path>
        <path d="M825.24 701.43L825.24 701.43" stroke="rgba(95, 19, 101, 1)" stroke-width="1.5"></path>
        <path d="M825.24 701.43L943.38 697.75" stroke="rgba(95, 19, 101, 1)" stroke-width="1.5"></path>
        <path d="M825.24 701.43L839.35 499.77" stroke="rgba(95, 19, 101, 1)" stroke-width="1.5"></path>
        <path d="M825.24 701.43L687.99 540.01" stroke="rgba(95, 19, 101, 1)" stroke-width="1.5"></path>
        <path d="M825.24 701.43L976.43 513.08" stroke="rgba(95, 19, 101, 1)" stroke-width="1.5"></path>
        <path d="M825.24 701.43L538.34 646.68" stroke="rgba(95, 19, 101, 1)" stroke-width="1.5"></path>
        <path d="M961.04 -85.39L961.04 -85.39" stroke="rgba(95, 19, 101, 1)" stroke-width="1.5"></path>
        <path d="M961.04 -85.39L1090.26 -92.34" stroke="rgba(95, 19, 101, 1)" stroke-width="1.5"></path>
        <path d="M961.04 -85.39L970.1 92.96" stroke="rgba(95, 19, 101, 1)" stroke-width="1.5"></path>
        <path d="M961.04 -85.39L1125.87 80.1" stroke="rgba(95, 19, 101, 1)" stroke-width="1.5"></path>
        <path d="M970.1 92.96L970.1 92.96" stroke="rgba(95, 19, 101, 1)" stroke-width="1.5"></path>
        <path d="M970.1 92.96L982.53 197.36" stroke="rgba(95, 19, 101, 1)" stroke-width="1.5"></path>
        <path d="M970.1 92.96L1125.87 80.1" stroke="rgba(95, 19, 101, 1)" stroke-width="1.5"></path>
        <path d="M970.1 92.96L1112.89 217.8" stroke="rgba(95, 19, 101, 1)" stroke-width="1.5"></path>
        <path d="M970.1 92.96L830.57 257.07" stroke="rgba(95, 19, 101, 1)" stroke-width="1.5"></path>
        <path d="M982.53 197.36L982.53 197.36" stroke="rgba(95, 19, 101, 1)" stroke-width="1.5"></path>
        <path d="M982.53 197.36L1112.89 217.8" stroke="rgba(95, 19, 101, 1)" stroke-width="1.5"></path>
        <path d="M982.53 197.36L966.63 377.5" stroke="rgba(95, 19, 101, 1)" stroke-width="1.5"></path>
        <path d="M982.53 197.36L1125.87 80.1" stroke="rgba(95, 19, 101, 1)" stroke-width="1.5"></path>
        <path d="M982.53 197.36L1160.44 374.38" stroke="rgba(95, 19, 101, 1)" stroke-width="1.5"></path>
        <path d="M966.63 377.5L966.63 377.5" stroke="rgba(95, 19, 101, 1)" stroke-width="1.5"></path>
        <path d="M966.63 377.5L976.43 513.08" stroke="rgba(95, 19, 101, 1)" stroke-width="1.5"></path>
        <path d="M966.63 377.5L839.35 499.77" stroke="rgba(95, 19, 101, 1)" stroke-width="1.5"></path>
        <path d="M976.43 513.08L976.43 513.08" stroke="rgba(95, 19, 101, 1)" stroke-width="1.5"></path>
        <path d="M943.38 697.75L943.38 697.75" stroke="rgba(95, 19, 101, 1)" stroke-width="1.5"></path>
        <path d="M943.38 697.75L976.43 513.08" stroke="rgba(95, 19, 101, 1)" stroke-width="1.5"></path>
        <path d="M943.38 697.75L1149.12 701.22" stroke="rgba(95, 19, 101, 1)" stroke-width="1.5"></path>
        <path d="M943.38 697.75L839.35 499.77" stroke="rgba(95, 19, 101, 1)" stroke-width="1.5"></path>
        <path d="M943.38 697.75L1135.64 540.08" stroke="rgba(95, 19, 101, 1)" stroke-width="1.5"></path>
        <path d="M943.38 697.75L687.99 540.01" stroke="rgba(95, 19, 101, 1)" stroke-width="1.5"></path>
        <path d="M1090.26 -92.34L1090.26 -92.34" stroke="rgba(95, 19, 101, 1)" stroke-width="1.5"></path>
        <path d="M1090.26 -92.34L1125.87 80.1" stroke="rgba(95, 19, 101, 1)" stroke-width="1.5"></path>
        <path d="M1090.26 -92.34L1300.22 -97.39" stroke="rgba(95, 19, 101, 1)" stroke-width="1.5"></path>
        <path d="M1090.26 -92.34L1248.04 60.36" stroke="rgba(95, 19, 101, 1)" stroke-width="1.5"></path>
        <path d="M1125.87 80.1L1125.87 80.1" stroke="rgba(95, 19, 101, 1)" stroke-width="1.5"></path>
        <path d="M1125.87 80.1L1248.04 60.36" stroke="rgba(95, 19, 101, 1)" stroke-width="1.5"></path>
        <path d="M1125.87 80.1L1112.89 217.8" stroke="rgba(95, 19, 101, 1)" stroke-width="1.5"></path>
        <path d="M1112.89 217.8L1112.89 217.8" stroke="rgba(95, 19, 101, 1)" stroke-width="1.5"></path>
        <path d="M1112.89 217.8L1160.44 374.38" stroke="rgba(95, 19, 101, 1)" stroke-width="1.5"></path>
        <path d="M1160.44 374.38L1160.44 374.38" stroke="rgba(95, 19, 101, 1)" stroke-width="1.5"></path>
        <path d="M1160.44 374.38L1259.83 340.96" stroke="rgba(95, 19, 101, 1)" stroke-width="1.5"></path>
        <path d="M1160.44 374.38L1135.64 540.08" stroke="rgba(95, 19, 101, 1)" stroke-width="1.5"></path>
        <path d="M1160.44 374.38L1268.14 521.59" stroke="rgba(95, 19, 101, 1)" stroke-width="1.5"></path>
        <path d="M1160.44 374.38L966.63 377.5" stroke="rgba(95, 19, 101, 1)" stroke-width="1.5"></path>
        <path d="M1160.44 374.38L1309.23 229.71" stroke="rgba(95, 19, 101, 1)" stroke-width="1.5"></path>
        <path d="M1135.64 540.08L1135.64 540.08" stroke="rgba(95, 19, 101, 1)" stroke-width="1.5"></path>
        <path d="M1135.64 540.08L1268.14 521.59" stroke="rgba(95, 19, 101, 1)" stroke-width="1.5"></path>
        <path d="M1135.64 540.08L976.43 513.08" stroke="rgba(95, 19, 101, 1)" stroke-width="1.5"></path>
        <path d="M1135.64 540.08L1149.12 701.22" stroke="rgba(95, 19, 101, 1)" stroke-width="1.5"></path>
        <path d="M1135.64 540.08L1307.15 676.24" stroke="rgba(95, 19, 101, 1)" stroke-width="1.5"></path>
        <path d="M1149.12 701.22L1149.12 701.22" stroke="rgba(95, 19, 101, 1)" stroke-width="1.5"></path>
        <path d="M1149.12 701.22L1307.15 676.24" stroke="rgba(95, 19, 101, 1)" stroke-width="1.5"></path>
        <path d="M1300.22 -97.39L1300.22 -97.39" stroke="rgba(95, 19, 101, 1)" stroke-width="1.5"></path>
        <path d="M1300.22 -97.39L1443.42 -98.7" stroke="rgba(95, 19, 101, 1)" stroke-width="1.5"></path>
        <path d="M1300.22 -97.39L1248.04 60.36" stroke="rgba(95, 19, 101, 1)" stroke-width="1.5"></path>
        <path d="M1300.22 -97.39L1394.61 108.32" stroke="rgba(95, 19, 101, 1)" stroke-width="1.5"></path>
        <path d="M1300.22 -97.39L1125.87 80.1" stroke="rgba(95, 19, 101, 1)" stroke-width="1.5"></path>
        <path d="M1248.04 60.36L1248.04 60.36" stroke="rgba(95, 19, 101, 1)" stroke-width="1.5"></path>
        <path d="M1248.04 60.36L1394.61 108.32" stroke="rgba(95, 19, 101, 1)" stroke-width="1.5"></path>
        <path d="M1309.23 229.71L1309.23 229.71" stroke="rgba(95, 19, 101, 1)" stroke-width="1.5"></path>
        <path d="M1309.23 229.71L1421.7 216.56" stroke="rgba(95, 19, 101, 1)" stroke-width="1.5"></path>
        <path d="M1309.23 229.71L1259.83 340.96" stroke="rgba(95, 19, 101, 1)" stroke-width="1.5"></path>
        <path d="M1259.83 340.96L1259.83 340.96" stroke="rgba(95, 19, 101, 1)" stroke-width="1.5"></path>
        <path d="M1268.14 521.59L1268.14 521.59" stroke="rgba(95, 19, 101, 1)" stroke-width="1.5"></path>
        <path d="M1307.15 676.24L1307.15 676.24" stroke="rgba(95, 19, 101, 1)" stroke-width="1.5"></path>
        <path d="M1307.15 676.24L1407.88 704.31" stroke="rgba(95, 19, 101, 1)" stroke-width="1.5"></path>
        <path d="M1307.15 676.24L1268.14 521.59" stroke="rgba(95, 19, 101, 1)" stroke-width="1.5"></path>
        <path d="M1307.15 676.24L1456.75 517.47" stroke="rgba(95, 19, 101, 1)" stroke-width="1.5"></path>
        <path d="M1443.42 -98.7L1443.42 -98.7" stroke="rgba(95, 19, 101, 1)" stroke-width="1.5"></path>
        <path d="M1443.42 -98.7L1577.02 -110.72" stroke="rgba(95, 19, 101, 1)" stroke-width="1.5"></path>
        <path d="M1443.42 -98.7L1550.69 81.08" stroke="rgba(95, 19, 101, 1)" stroke-width="1.5"></path>
        <path d="M1394.61 108.32L1394.61 108.32" stroke="rgba(95, 19, 101, 1)" stroke-width="1.5"></path>
        <path d="M1394.61 108.32L1421.7 216.56" stroke="rgba(95, 19, 101, 1)" stroke-width="1.5"></path>
        <path d="M1394.61 108.32L1309.23 229.71" stroke="rgba(95, 19, 101, 1)" stroke-width="1.5"></path>
        <path d="M1421.7 216.56L1421.7 216.56" stroke="rgba(95, 19, 101, 1)" stroke-width="1.5"></path>
        <path d="M1421.7 216.56L1541.5 262.2" stroke="rgba(95, 19, 101, 1)" stroke-width="1.5"></path>
        <path d="M1421.7 216.56L1449.74 348.91" stroke="rgba(95, 19, 101, 1)" stroke-width="1.5"></path>
        <path d="M1449.74 348.91L1449.74 348.91" stroke="rgba(95, 19, 101, 1)" stroke-width="1.5"></path>
        <path d="M1449.74 348.91L1541.5 262.2" stroke="rgba(95, 19, 101, 1)" stroke-width="1.5"></path>
        <path d="M1449.74 348.91L1608.15 381.76" stroke="rgba(95, 19, 101, 1)" stroke-width="1.5"></path>
        <path d="M1449.74 348.91L1456.75 517.47" stroke="rgba(95, 19, 101, 1)" stroke-width="1.5"></path>
        <path d="M1449.74 348.91L1309.23 229.71" stroke="rgba(95, 19, 101, 1)" stroke-width="1.5"></path>
        <path d="M1449.74 348.91L1259.83 340.96" stroke="rgba(95, 19, 101, 1)" stroke-width="1.5"></path>
        <path d="M1456.75 517.47L1456.75 517.47" stroke="rgba(95, 19, 101, 1)" stroke-width="1.5"></path>
        <path d="M1456.75 517.47L1582.25 559.95" stroke="rgba(95, 19, 101, 1)" stroke-width="1.5"></path>
        <path d="M1456.75 517.47L1268.14 521.59" stroke="rgba(95, 19, 101, 1)" stroke-width="1.5"></path>
        <path d="M1456.75 517.47L1407.88 704.31" stroke="rgba(95, 19, 101, 1)" stroke-width="1.5"></path>
        <path d="M1456.75 517.47L1608.15 381.76" stroke="rgba(95, 19, 101, 1)" stroke-width="1.5"></path>
        <path d="M1407.88 704.31L1407.88 704.31" stroke="rgba(95, 19, 101, 1)" stroke-width="1.5"></path>
        <path d="M1407.88 704.31L1566.32 701.17" stroke="rgba(95, 19, 101, 1)" stroke-width="1.5"></path>
        <path d="M1407.88 704.31L1582.25 559.95" stroke="rgba(95, 19, 101, 1)" stroke-width="1.5"></path>
        <path d="M1407.88 704.31L1268.14 521.59" stroke="rgba(95, 19, 101, 1)" stroke-width="1.5"></path>
        <path d="M1407.88 704.31L1149.12 701.22" stroke="rgba(95, 19, 101, 1)" stroke-width="1.5"></path>
        <path d="M1577.02 -110.72L1577.02 -110.72" stroke="rgba(95, 19, 101, 1)" stroke-width="1.5"></path>
        <path d="M1577.02 -110.72L1550.69 81.08" stroke="rgba(95, 19, 101, 1)" stroke-width="1.5"></path>
        <path d="M1577.02 -110.72L1300.22 -97.39" stroke="rgba(95, 19, 101, 1)" stroke-width="1.5"></path>
        <path d="M1577.02 -110.72L1394.61 108.32" stroke="rgba(95, 19, 101, 1)" stroke-width="1.5"></path>
        <path d="M1577.02 -110.72L1421.7 216.56" stroke="rgba(95, 19, 101, 1)" stroke-width="1.5"></path>
        <path d="M1577.02 -110.72L1248.04 60.36" stroke="rgba(95, 19, 101, 1)" stroke-width="1.5"></path>
        <path d="M1550.69 81.08L1550.69 81.08" stroke="rgba(95, 19, 101, 1)" stroke-width="1.5"></path>
        <path d="M1550.69 81.08L1394.61 108.32" stroke="rgba(95, 19, 101, 1)" stroke-width="1.5"></path>
        <path d="M1550.69 81.08L1541.5 262.2" stroke="rgba(95, 19, 101, 1)" stroke-width="1.5"></path>
        <path d="M1550.69 81.08L1421.7 216.56" stroke="rgba(95, 19, 101, 1)" stroke-width="1.5"></path>
        <path d="M1541.5 262.2L1541.5 262.2" stroke="rgba(95, 19, 101, 1)" stroke-width="1.5"></path>
        <path d="M1541.5 262.2L1608.15 381.76" stroke="rgba(95, 19, 101, 1)" stroke-width="1.5"></path>
        <path d="M1541.5 262.2L1394.61 108.32" stroke="rgba(95, 19, 101, 1)" stroke-width="1.5"></path>
        <path d="M1541.5 262.2L1309.23 229.71" stroke="rgba(95, 19, 101, 1)" stroke-width="1.5"></path>
        <path d="M1608.15 381.76L1608.15 381.76" stroke="rgba(95, 19, 101, 1)" stroke-width="1.5"></path>
        <path d="M1608.15 381.76L1582.25 559.95" stroke="rgba(95, 19, 101, 1)" stroke-width="1.5"></path>
        <path d="M1582.25 559.95L1582.25 559.95" stroke="rgba(95, 19, 101, 1)" stroke-width="1.5"></path>
        <path d="M1582.25 559.95L1566.32 701.17" stroke="rgba(95, 19, 101, 1)" stroke-width="1.5"></path>
        <path d="M1582.25 559.95L1449.74 348.91" stroke="rgba(95, 19, 101, 1)" stroke-width="1.5"></path>
        <path d="M1582.25 559.95L1307.15 676.24" stroke="rgba(95, 19, 101, 1)" stroke-width="1.5"></path>
        <path d="M1566.32 701.17L1566.32 701.17" stroke="rgba(95, 19, 101, 1)" stroke-width="1.5"></path>
        <path d="M1566.32 701.17L1456.75 517.47" stroke="rgba(95, 19, 101, 1)" stroke-width="1.5"></path>
        <path d="M1566.32 701.17L1307.15 676.24" stroke="rgba(95, 19, 101, 1)" stroke-width="1.5"></path>
        <circle r="5" cx="-57.73" cy="404.07" fill="rgba(95, 19, 101, 1)"></circle>
        <circle r="5" cx="-82.06" cy="530.95" fill="rgba(95, 19, 101, 1)"></circle>
        <circle r="5" cx="-78.58" cy="711.78" fill="rgba(95, 19, 101, 1)"></circle>
        <circle r="5" cx="73.56" cy="370.17" fill="rgba(95, 19, 101, 1)"></circle>
        <circle r="5" cx="60.41" cy="516.61" fill="rgba(95, 19, 101, 1)"></circle>
        <circle r="5" cx="62.27" cy="677.45" fill="rgba(95, 19, 101, 1)"></circle>
        <circle r="5" cx="248.64" cy="380.44" fill="rgba(95, 19, 101, 1)"></circle>
        <circle r="5" cx="197.19" cy="554.15" fill="rgba(95, 19, 101, 1)"></circle>
        <circle r="5" cx="217.42" cy="650.01" fill="rgba(95, 19, 101, 1)"></circle>
        <circle r="5" cx="350.98" cy="499.09" fill="rgba(95, 19, 101, 1)"></circle>
        <circle r="5" cx="342.17" cy="654.8" fill="rgba(95, 19, 101, 1)"></circle>
        <circle r="5" cx="526.3" cy="407.6" fill="rgba(95, 19, 101, 1)"></circle>
        <circle r="5" cx="546.62" cy="490.7" fill="rgba(95, 19, 101, 1)"></circle>
        <circle r="5" cx="538.34" cy="646.68" fill="rgba(95, 19, 101, 1)"></circle>
        <circle r="5" cx="669.04" cy="223.23" fill="rgba(95, 19, 101, 1)"></circle>
        <circle r="5" cx="703.88" cy="411.27" fill="rgba(95, 19, 101, 1)"></circle>
        <circle r="5" cx="687.99" cy="540.01" fill="rgba(95, 19, 101, 1)"></circle>
        <circle r="5" cx="830.57" cy="257.07" fill="rgba(95, 19, 101, 1)"></circle>
        <circle r="5" cx="823.05" cy="406.14" fill="rgba(95, 19, 101, 1)"></circle>
        <circle r="5" cx="839.35" cy="499.77" fill="rgba(95, 19, 101, 1)"></circle>
        <circle r="5" cx="825.24" cy="701.43" fill="rgba(95, 19, 101, 1)"></circle>
        <circle r="5" cx="961.04" cy="-85.39" fill="rgba(95, 19, 101, 1)"></circle>
        <circle r="5" cx="970.1" cy="92.96" fill="rgba(95, 19, 101, 1)"></circle>
        <circle r="5" cx="982.53" cy="197.36" fill="rgba(95, 19, 101, 1)"></circle>
        <circle r="5" cx="966.63" cy="377.5" fill="rgba(95, 19, 101, 1)"></circle>
        <circle r="5" cx="976.43" cy="513.08" fill="rgba(95, 19, 101, 1)"></circle>
        <circle r="5" cx="943.38" cy="697.75" fill="rgba(95, 19, 101, 1)"></circle>
        <circle r="5" cx="1090.26" cy="-92.34" fill="rgba(95, 19, 101, 1)"></circle>
        <circle r="5" cx="1125.87" cy="80.1" fill="rgba(95, 19, 101, 1)"></circle>
        <circle r="5" cx="1112.89" cy="217.8" fill="rgba(95, 19, 101, 1)"></circle>
        <circle r="5" cx="1160.44" cy="374.38" fill="rgba(95, 19, 101, 1)"></circle>
        <circle r="5" cx="1135.64" cy="540.08" fill="rgba(95, 19, 101, 1)"></circle>
        <circle r="5" cx="1149.12" cy="701.22" fill="rgba(95, 19, 101, 1)"></circle>
        <circle r="5" cx="1300.22" cy="-97.39" fill="rgba(95, 19, 101, 1)"></circle>
        <circle r="5" cx="1248.04" cy="60.36" fill="rgba(95, 19, 101, 1)"></circle>
        <circle r="5" cx="1309.23" cy="229.71" fill="rgba(95, 19, 101, 1)"></circle>
        <circle r="5" cx="1259.83" cy="340.96" fill="rgba(95, 19, 101, 1)"></circle>
        <circle r="5" cx="1268.14" cy="521.59" fill="rgba(95, 19, 101, 1)"></circle>
        <circle r="5" cx="1307.15" cy="676.24" fill="rgba(95, 19, 101, 1)"></circle>
        <circle r="5" cx="1443.42" cy="-98.7" fill="rgba(95, 19, 101, 1)"></circle>
        <circle r="5" cx="1394.61" cy="108.32" fill="rgba(95, 19, 101, 1)"></circle>
        <circle r="5" cx="1421.7" cy="216.56" fill="rgba(95, 19, 101, 1)"></circle>
        <circle r="5" cx="1449.74" cy="348.91" fill="rgba(95, 19, 101, 1)"></circle>
        <circle r="5" cx="1456.75" cy="517.47" fill="rgba(95, 19, 101, 1)"></circle>
        <circle r="5" cx="1407.88" cy="704.31" fill="rgba(95, 19, 101, 1)"></circle>
        <circle r="5" cx="1577.02" cy="-110.72" fill="rgba(95, 19, 101, 1)"></circle>
        <circle r="5" cx="1550.69" cy="81.08" fill="rgba(95, 19, 101, 1)"></circle>
        <circle r="5" cx="1541.5" cy="262.2" fill="rgba(95, 19, 101, 1)"></circle>
        <circle r="5" cx="1608.15" cy="381.76" fill="rgba(95, 19, 101, 1)"></circle>
        <circle r="5" cx="1582.25" cy="559.95" fill="rgba(95, 19, 101, 1)"></circle>
        <circle r="5" cx="1566.32" cy="701.17" fill="rgba(95, 19, 101, 1)"></circle>
        <path d="M235.76 523.38L235.76 523.38" stroke="hsl(323.1, 100%, 91%)" stroke-width="1.5"></path>
        <path d="M235.76 523.38L402.36 514.27" stroke="hsl(323.1, 100%, 91%)" stroke-width="1.5"></path>
        <path d="M235.76 523.38L215.4 708" stroke="hsl(323.1, 100%, 91%)" stroke-width="1.5"></path>
        <path d="M235.76 523.38L46.58 508.57" stroke="hsl(323.1, 100%, 91%)" stroke-width="1.5"></path>
        <path d="M235.76 523.38L388 651.71" stroke="hsl(323.1, 100%, 91%)" stroke-width="1.5"></path>
        <path d="M551.65 399.88L551.65 399.88" stroke="hsl(323.1, 100%, 91%)" stroke-width="1.5"></path>
        <path d="M551.65 399.88L493.51 558.82" stroke="hsl(323.1, 100%, 91%)" stroke-width="1.5"></path>
        <path d="M551.65 399.88L402.36 514.27" stroke="hsl(323.1, 100%, 91%)" stroke-width="1.5"></path>
        <path d="M551.65 399.88L711.18 562.38" stroke="hsl(323.1, 100%, 91%)" stroke-width="1.5"></path>
        <path d="M551.65 399.88L831.2 367.18" stroke="hsl(323.1, 100%, 91%)" stroke-width="1.5"></path>
        <path d="M711.18 562.38L711.18 562.38" stroke="hsl(323.1, 100%, 91%)" stroke-width="1.5"></path>
        <path d="M711.18 562.38L693.58 672.81" stroke="hsl(323.1, 100%, 91%)" stroke-width="1.5"></path>
        <path d="M711.18 562.38L806.34 655.09" stroke="hsl(323.1, 100%, 91%)" stroke-width="1.5"></path>
        <path d="M857.23 495.48L857.23 495.48" stroke="hsl(323.1, 100%, 91%)" stroke-width="1.5"></path>
        <path d="M857.23 495.48L831.2 367.18" stroke="hsl(323.1, 100%, 91%)" stroke-width="1.5"></path>
        <path d="M857.23 495.48L998.59 516.78" stroke="hsl(323.1, 100%, 91%)" stroke-width="1.5"></path>
        <path d="M857.23 495.48L711.18 562.38" stroke="hsl(323.1, 100%, 91%)" stroke-width="1.5"></path>
        <path d="M857.23 495.48L806.34 655.09" stroke="hsl(323.1, 100%, 91%)" stroke-width="1.5"></path>
        <path d="M857.23 495.48L943.1 673.93" stroke="hsl(323.1, 100%, 91%)" stroke-width="1.5"></path>
        <path d="M857.23 495.48L997.19 337.91" stroke="hsl(323.1, 100%, 91%)" stroke-width="1.5"></path>
        <path d="M1242.82 559.29L1242.82 559.29" stroke="hsl(323.1, 100%, 91%)" stroke-width="1.5"></path>
        <path d="M1242.82 559.29L1128.01 555.43" stroke="hsl(323.1, 100%, 91%)" stroke-width="1.5"></path>
        <path d="M1242.82 559.29L1146.62 642.31" stroke="hsl(323.1, 100%, 91%)" stroke-width="1.5"></path>
        <path d="M1242.82 559.29L1260.85 408.19" stroke="hsl(323.1, 100%, 91%)" stroke-width="1.5"></path>
        <path d="M1242.82 559.29L1435.37 534.94" stroke="hsl(323.1, 100%, 91%)" stroke-width="1.5"></path>
        <path d="M1435.37 534.94L1435.37 534.94" stroke="hsl(323.1, 100%, 91%)" stroke-width="1.5"></path>
        <path d="M1435.37 534.94L1541.7 498.87" stroke="hsl(323.1, 100%, 91%)" stroke-width="1.5"></path>
        <path d="M1435.37 534.94L1446.4 685.58" stroke="hsl(323.1, 100%, 91%)" stroke-width="1.5"></path>
        <path d="M-56.63 516.33L-56.63 516.33" stroke="hsl(323.1, 100%, 91%)" stroke-width="1.5"></path>
        <path d="M-56.63 516.33L46.58 508.57" stroke="hsl(323.1, 100%, 91%)" stroke-width="1.5"></path>
        <path d="M-56.63 516.33L82.35 691.92" stroke="hsl(323.1, 100%, 91%)" stroke-width="1.5"></path>
        <path d="M46.58 508.57L46.58 508.57" stroke="hsl(323.1, 100%, 91%)" stroke-width="1.5"></path>
        <path d="M46.58 508.57L82.35 691.92" stroke="hsl(323.1, 100%, 91%)" stroke-width="1.5"></path>
        <path d="M46.58 508.57L215.4 708" stroke="hsl(323.1, 100%, 91%)" stroke-width="1.5"></path>
        <path d="M82.35 691.92L82.35 691.92" stroke="hsl(323.1, 100%, 91%)" stroke-width="1.5"></path>
        <path d="M82.35 691.92L215.4 708" stroke="hsl(323.1, 100%, 91%)" stroke-width="1.5"></path>
        <path d="M82.35 691.92L235.76 523.38" stroke="hsl(323.1, 100%, 91%)" stroke-width="1.5"></path>
        <path d="M82.35 691.92L388 651.71" stroke="hsl(323.1, 100%, 91%)" stroke-width="1.5"></path>
        <path d="M215.4 708L215.4 708" stroke="hsl(323.1, 100%, 91%)" stroke-width="1.5"></path>
        <path d="M215.4 708L388 651.71" stroke="hsl(323.1, 100%, 91%)" stroke-width="1.5"></path>
        <path d="M402.36 514.27L402.36 514.27" stroke="hsl(323.1, 100%, 91%)" stroke-width="1.5"></path>
        <path d="M402.36 514.27L493.51 558.82" stroke="hsl(323.1, 100%, 91%)" stroke-width="1.5"></path>
        <path d="M402.36 514.27L388 651.71" stroke="hsl(323.1, 100%, 91%)" stroke-width="1.5"></path>
        <path d="M388 651.71L388 651.71" stroke="hsl(323.1, 100%, 91%)" stroke-width="1.5"></path>
        <path d="M388 651.71L493.51 558.82" stroke="hsl(323.1, 100%, 91%)" stroke-width="1.5"></path>
        <path d="M388 651.71L527.03 691.57" stroke="hsl(323.1, 100%, 91%)" stroke-width="1.5"></path>
        <path d="M493.51 558.82L493.51 558.82" stroke="hsl(323.1, 100%, 91%)" stroke-width="1.5"></path>
        <path d="M493.51 558.82L527.03 691.57" stroke="hsl(323.1, 100%, 91%)" stroke-width="1.5"></path>
        <path d="M493.51 558.82L711.18 562.38" stroke="hsl(323.1, 100%, 91%)" stroke-width="1.5"></path>
        <path d="M493.51 558.82L693.58 672.81" stroke="hsl(323.1, 100%, 91%)" stroke-width="1.5"></path>
        <path d="M527.03 691.57L527.03 691.57" stroke="hsl(323.1, 100%, 91%)" stroke-width="1.5"></path>
        <path d="M693.58 672.81L693.58 672.81" stroke="hsl(323.1, 100%, 91%)" stroke-width="1.5"></path>
        <path d="M693.58 672.81L806.34 655.09" stroke="hsl(323.1, 100%, 91%)" stroke-width="1.5"></path>
        <path d="M831.2 367.18L831.2 367.18" stroke="hsl(323.1, 100%, 91%)" stroke-width="1.5"></path>
        <path d="M831.2 367.18L997.19 337.91" stroke="hsl(323.1, 100%, 91%)" stroke-width="1.5"></path>
        <path d="M831.2 367.18L998.59 516.78" stroke="hsl(323.1, 100%, 91%)" stroke-width="1.5"></path>
        <path d="M806.34 655.09L806.34 655.09" stroke="hsl(323.1, 100%, 91%)" stroke-width="1.5"></path>
        <path d="M997.19 337.91L997.19 337.91" stroke="hsl(323.1, 100%, 91%)" stroke-width="1.5"></path>
        <path d="M997.19 337.91L1106.01 255.88" stroke="hsl(323.1, 100%, 91%)" stroke-width="1.5"></path>
        <path d="M997.19 337.91L998.59 516.78" stroke="hsl(323.1, 100%, 91%)" stroke-width="1.5"></path>
        <path d="M997.19 337.91L1128.01 555.43" stroke="hsl(323.1, 100%, 91%)" stroke-width="1.5"></path>
        <path d="M997.19 337.91L1260.85 408.19" stroke="hsl(323.1, 100%, 91%)" stroke-width="1.5"></path>
        <path d="M998.59 516.78L998.59 516.78" stroke="hsl(323.1, 100%, 91%)" stroke-width="1.5"></path>
        <path d="M998.59 516.78L1128.01 555.43" stroke="hsl(323.1, 100%, 91%)" stroke-width="1.5"></path>
        <path d="M998.59 516.78L943.1 673.93" stroke="hsl(323.1, 100%, 91%)" stroke-width="1.5"></path>
        <path d="M943.1 673.93L943.1 673.93" stroke="hsl(323.1, 100%, 91%)" stroke-width="1.5"></path>
        <path d="M943.1 673.93L806.34 655.09" stroke="hsl(323.1, 100%, 91%)" stroke-width="1.5"></path>
        <path d="M943.1 673.93L1146.62 642.31" stroke="hsl(323.1, 100%, 91%)" stroke-width="1.5"></path>
        <path d="M943.1 673.93L1128.01 555.43" stroke="hsl(323.1, 100%, 91%)" stroke-width="1.5"></path>
        <path d="M1152.96 69.46L1152.96 69.46" stroke="hsl(323.1, 100%, 91%)" stroke-width="1.5"></path>
        <path d="M1152.96 69.46L1279.21 81.8" stroke="hsl(323.1, 100%, 91%)" stroke-width="1.5"></path>
        <path d="M1152.96 69.46L1251.65 -85.03" stroke="hsl(323.1, 100%, 91%)" stroke-width="1.5"></path>
        <path d="M1152.96 69.46L1106.01 255.88" stroke="hsl(323.1, 100%, 91%)" stroke-width="1.5"></path>
        <path d="M1152.96 69.46L1302.68 202.65" stroke="hsl(323.1, 100%, 91%)" stroke-width="1.5"></path>
        <path d="M1152.96 69.46L1411.7 108.72" stroke="hsl(323.1, 100%, 91%)" stroke-width="1.5"></path>
        <path d="M1152.96 69.46L997.19 337.91" stroke="hsl(323.1, 100%, 91%)" stroke-width="1.5"></path>
        <path d="M1106.01 255.88L1106.01 255.88" stroke="hsl(323.1, 100%, 91%)" stroke-width="1.5"></path>
        <path d="M1106.01 255.88L1302.68 202.65" stroke="hsl(323.1, 100%, 91%)" stroke-width="1.5"></path>
        <path d="M1106.01 255.88L1260.85 408.19" stroke="hsl(323.1, 100%, 91%)" stroke-width="1.5"></path>
        <path d="M1106.01 255.88L1279.21 81.8" stroke="hsl(323.1, 100%, 91%)" stroke-width="1.5"></path>
        <path d="M1128.01 555.43L1128.01 555.43" stroke="hsl(323.1, 100%, 91%)" stroke-width="1.5"></path>
        <path d="M1128.01 555.43L1146.62 642.31" stroke="hsl(323.1, 100%, 91%)" stroke-width="1.5"></path>
        <path d="M1146.62 642.31L1146.62 642.31" stroke="hsl(323.1, 100%, 91%)" stroke-width="1.5"></path>
        <path d="M1146.62 642.31L998.59 516.78" stroke="hsl(323.1, 100%, 91%)" stroke-width="1.5"></path>
        <path d="M1146.62 642.31L1260.85 408.19" stroke="hsl(323.1, 100%, 91%)" stroke-width="1.5"></path>
        <path d="M1251.65 -85.03L1251.65 -85.03" stroke="hsl(323.1, 100%, 91%)" stroke-width="1.5"></path>
        <path d="M1251.65 -85.03L1279.21 81.8" stroke="hsl(323.1, 100%, 91%)" stroke-width="1.5"></path>
        <path d="M1251.65 -85.03L1411.7 108.72" stroke="hsl(323.1, 100%, 91%)" stroke-width="1.5"></path>
        <path d="M1251.65 -85.03L1302.68 202.65" stroke="hsl(323.1, 100%, 91%)" stroke-width="1.5"></path>
        <path d="M1251.65 -85.03L1601.46 -99.07" stroke="hsl(323.1, 100%, 91%)" stroke-width="1.5"></path>
        <path d="M1251.65 -85.03L1106.01 255.88" stroke="hsl(323.1, 100%, 91%)" stroke-width="1.5"></path>
        <path d="M1279.21 81.8L1279.21 81.8" stroke="hsl(323.1, 100%, 91%)" stroke-width="1.5"></path>
        <path d="M1279.21 81.8L1302.68 202.65" stroke="hsl(323.1, 100%, 91%)" stroke-width="1.5"></path>
        <path d="M1279.21 81.8L1411.7 108.72" stroke="hsl(323.1, 100%, 91%)" stroke-width="1.5"></path>
        <path d="M1279.21 81.8L1429.86 260" stroke="hsl(323.1, 100%, 91%)" stroke-width="1.5"></path>
        <path d="M1302.68 202.65L1302.68 202.65" stroke="hsl(323.1, 100%, 91%)" stroke-width="1.5"></path>
        <path d="M1302.68 202.65L1429.86 260" stroke="hsl(323.1, 100%, 91%)" stroke-width="1.5"></path>
        <path d="M1302.68 202.65L1411.7 108.72" stroke="hsl(323.1, 100%, 91%)" stroke-width="1.5"></path>
        <path d="M1260.85 408.19L1260.85 408.19" stroke="hsl(323.1, 100%, 91%)" stroke-width="1.5"></path>
        <path d="M1260.85 408.19L1128.01 555.43" stroke="hsl(323.1, 100%, 91%)" stroke-width="1.5"></path>
        <path d="M1260.85 408.19L1459.75 342.29" stroke="hsl(323.1, 100%, 91%)" stroke-width="1.5"></path>
        <path d="M1260.85 408.19L1302.68 202.65" stroke="hsl(323.1, 100%, 91%)" stroke-width="1.5"></path>
        <path d="M1411.7 108.72L1411.7 108.72" stroke="hsl(323.1, 100%, 91%)" stroke-width="1.5"></path>
        <path d="M1411.7 108.72L1429.86 260" stroke="hsl(323.1, 100%, 91%)" stroke-width="1.5"></path>
        <path d="M1411.7 108.72L1593.13 91.98" stroke="hsl(323.1, 100%, 91%)" stroke-width="1.5"></path>
        <path d="M1411.7 108.72L1459.75 342.29" stroke="hsl(323.1, 100%, 91%)" stroke-width="1.5"></path>
        <path d="M1429.86 260L1429.86 260" stroke="hsl(323.1, 100%, 91%)" stroke-width="1.5"></path>
        <path d="M1429.86 260L1459.75 342.29" stroke="hsl(323.1, 100%, 91%)" stroke-width="1.5"></path>
        <path d="M1429.86 260L1607.32 253.03" stroke="hsl(323.1, 100%, 91%)" stroke-width="1.5"></path>
        <path d="M1429.86 260L1597.11 379.58" stroke="hsl(323.1, 100%, 91%)" stroke-width="1.5"></path>
        <path d="M1459.75 342.29L1459.75 342.29" stroke="hsl(323.1, 100%, 91%)" stroke-width="1.5"></path>
        <path d="M1459.75 342.29L1597.11 379.58" stroke="hsl(323.1, 100%, 91%)" stroke-width="1.5"></path>
        <path d="M1459.75 342.29L1607.32 253.03" stroke="hsl(323.1, 100%, 91%)" stroke-width="1.5"></path>
        <path d="M1459.75 342.29L1541.7 498.87" stroke="hsl(323.1, 100%, 91%)" stroke-width="1.5"></path>
        <path d="M1446.4 685.58L1446.4 685.58" stroke="hsl(323.1, 100%, 91%)" stroke-width="1.5"></path>
        <path d="M1446.4 685.58L1611.82 648.8" stroke="hsl(323.1, 100%, 91%)" stroke-width="1.5"></path>
        <path d="M1446.4 685.58L1541.7 498.87" stroke="hsl(323.1, 100%, 91%)" stroke-width="1.5"></path>
        <path d="M1446.4 685.58L1242.82 559.29" stroke="hsl(323.1, 100%, 91%)" stroke-width="1.5"></path>
        <path d="M1446.4 685.58L1146.62 642.31" stroke="hsl(323.1, 100%, 91%)" stroke-width="1.5"></path>
        <path d="M1601.46 -99.07L1601.46 -99.07" stroke="hsl(323.1, 100%, 91%)" stroke-width="1.5"></path>
        <path d="M1601.46 -99.07L1593.13 91.98" stroke="hsl(323.1, 100%, 91%)" stroke-width="1.5"></path>
        <path d="M1601.46 -99.07L1411.7 108.72" stroke="hsl(323.1, 100%, 91%)" stroke-width="1.5"></path>
        <path d="M1593.13 91.98L1593.13 91.98" stroke="hsl(323.1, 100%, 91%)" stroke-width="1.5"></path>
        <path d="M1593.13 91.98L1607.32 253.03" stroke="hsl(323.1, 100%, 91%)" stroke-width="1.5"></path>
        <path d="M1607.32 253.03L1607.32 253.03" stroke="hsl(323.1, 100%, 91%)" stroke-width="1.5"></path>
        <path d="M1607.32 253.03L1597.11 379.58" stroke="hsl(323.1, 100%, 91%)" stroke-width="1.5"></path>
        <path d="M1607.32 253.03L1411.7 108.72" stroke="hsl(323.1, 100%, 91%)" stroke-width="1.5"></path>
        <path d="M1597.11 379.58L1597.11 379.58" stroke="hsl(323.1, 100%, 91%)" stroke-width="1.5"></path>
        <path d="M1597.11 379.58L1541.7 498.87" stroke="hsl(323.1, 100%, 91%)" stroke-width="1.5"></path>
        <path d="M1541.7 498.87L1541.7 498.87" stroke="hsl(323.1, 100%, 91%)" stroke-width="1.5"></path>
        <path d="M1541.7 498.87L1611.82 648.8" stroke="hsl(323.1, 100%, 91%)" stroke-width="1.5"></path>
        <path d="M1611.82 648.8L1611.82 648.8" stroke="hsl(323.1, 100%, 91%)" stroke-width="1.5"></path>
        <path d="M1611.82 648.8L1435.37 534.94" stroke="hsl(323.1, 100%, 91%)" stroke-width="1.5"></path>
        <circle r="25" cx="235.76" cy="523.38" fill="url(&quot;#SvgjsRadialGradient1007&quot;)"></circle>
        <circle r="25" cx="551.65" cy="399.88" fill="url(&quot;#SvgjsRadialGradient1007&quot;)"></circle>
        <circle r="25" cx="711.18" cy="562.38" fill="url(&quot;#SvgjsRadialGradient1007&quot;)"></circle>
        <circle r="25" cx="857.23" cy="495.48" fill="url(&quot;#SvgjsRadialGradient1007&quot;)"></circle>
        <circle r="25" cx="1242.82" cy="559.29" fill="url(&quot;#SvgjsRadialGradient1007&quot;)"></circle>
        <circle r="25" cx="1435.37" cy="534.94" fill="url(&quot;#SvgjsRadialGradient1007&quot;)"></circle>
        <circle r="5" cx="-56.63" cy="516.33" fill="#ffb3e2"></circle>
        <circle r="5" cx="46.58" cy="508.57" fill="#ffb3e2"></circle>
        <circle r="5" cx="82.35" cy="691.92" fill="#ffb3e2"></circle>
        <circle r="5" cx="215.4" cy="708" fill="#ffb3e2"></circle>
        <circle r="5" cx="402.36" cy="514.27" fill="#ffb3e2"></circle>
        <circle r="5" cx="388" cy="651.71" fill="#ffb3e2"></circle>
        <circle r="5" cx="493.51" cy="558.82" fill="#ffb3e2"></circle>
        <circle r="5" cx="527.03" cy="691.57" fill="#ffb3e2"></circle>
        <circle r="5" cx="693.58" cy="672.81" fill="#ffb3e2"></circle>
        <circle r="5" cx="831.2" cy="367.18" fill="#ffb3e2"></circle>
        <circle r="5" cx="806.34" cy="655.09" fill="#ffb3e2"></circle>
        <circle r="5" cx="997.19" cy="337.91" fill="#ffb3e2"></circle>
        <circle r="5" cx="998.59" cy="516.78" fill="#ffb3e2"></circle>
        <circle r="5" cx="943.1" cy="673.93" fill="#ffb3e2"></circle>
        <circle r="5" cx="1152.96" cy="69.46" fill="#ffb3e2"></circle>
        <circle r="5" cx="1106.01" cy="255.88" fill="#ffb3e2"></circle>
        <circle r="5" cx="1128.01" cy="555.43" fill="#ffb3e2"></circle>
        <circle r="5" cx="1146.62" cy="642.31" fill="#ffb3e2"></circle>
        <circle r="5" cx="1251.65" cy="-85.03" fill="#ffb3e2"></circle>
        <circle r="5" cx="1279.21" cy="81.8" fill="#ffb3e2"></circle>
        <circle r="5" cx="1302.68" cy="202.65" fill="#ffb3e2"></circle>
        <circle r="5" cx="1260.85" cy="408.19" fill="#ffb3e2"></circle>
        <circle r="5" cx="1411.7" cy="108.72" fill="#ffb3e2"></circle>
        <circle r="5" cx="1429.86" cy="260" fill="#ffb3e2"></circle>
        <circle r="5" cx="1459.75" cy="342.29" fill="#ffb3e2"></circle>
        <circle r="5" cx="1446.4" cy="685.58" fill="#ffb3e2"></circle>
        <circle r="5" cx="1601.46" cy="-99.07" fill="#ffb3e2"></circle>
        <circle r="5" cx="1593.13" cy="91.98" fill="#ffb3e2"></circle>
        <circle r="5" cx="1607.32" cy="253.03" fill="#ffb3e2"></circle>
        <circle r="5" cx="1597.11" cy="379.58" fill="#ffb3e2"></circle>
        <circle r="5" cx="1541.7" cy="498.87" fill="#ffb3e2"></circle>
        <circle r="5" cx="1611.82" cy="648.8" fill="#ffb3e2"></circle>
    </g>
    <defs>
        <mask id="SvgjsMask1006">
            <rect width="1440" height="560" fill="#ffffff"></rect>
        </mask>
        <radialGradient id="SvgjsRadialGradient1007">
            <stop stop-color="#ffffff" offset="0.1"></stop>
            <stop stop-color="rgba(255, 102, 196, 1)" offset="0.2"></stop>
            <stop stop-color="rgba(255, 102, 196, 0)" offset="1"></stop>
        </radialGradient>
    </defs>
</svg>